<?xml version="1.0" standalone="no"?>
<!DOCTYPE svg PUBLIC "-//W3C//DTD SVG 20010904//EN"
 "http://www.w3.org/TR/2001/REC-SVG-20010904/DTD/svg10.dtd">
<svg version="1.0" xmlns="http://www.w3.org/2000/svg"
 width="689.000000pt" height="696.000000pt" viewBox="0 0 689.000000 696.000000"
 preserveAspectRatio="xMidYMid meet">

<g transform="translate(0.000000,696.000000) scale(0.100000,-0.100000)"
fill="#000000" stroke="none">
<path d="M732 6953 c406 -2 1070 -2 1475 0 406 1 74 2 -737 2 -811 0 -1143 -1
-738 -2z"/>
<path d="M3708 6953 c419 -2 1105 -2 1525 0 419 1 76 2 -763 2 -839 0 -1182
-1 -762 -2z"/>
<path d="M2401 6783 c-97 -42 -163 -119 -190 -219 -14 -52 -25 -62 -90 -74
-28 -5 -62 -15 -74 -21 -28 -15 -97 -76 -91 -81 8 -8 -40 -144 -61 -173 -12
-16 -29 -58 -38 -93 -9 -34 -25 -78 -36 -96 -12 -18 -21 -42 -21 -52 0 -16 5
-14 26 11 27 32 27 26 -1 -42 -17 -42 -34 -56 -36 -30 -1 6 -4 -1 -8 -18 -3
-18 -15 -34 -29 -40 -23 -10 -26 -30 -12 -75 6 -21 1 -30 -28 -56 -29 -25 -34
-35 -28 -57 4 -18 13 -27 26 -27 10 0 22 -9 25 -21 4 -11 20 -40 36 -63 15
-24 31 -63 35 -87 8 -54 17 -73 54 -107 35 -34 37 -44 22 -110 -15 -64 -15
-65 -2 -57 18 11 10 -25 -10 -45 -11 -11 -20 -26 -20 -33 0 -7 -4 -17 -8 -23
-20 -22 -43 -107 -43 -157 0 -29 7 -93 16 -141 l17 -89 -26 -53 c-27 -56 -36
-156 -17 -192 6 -9 12 -29 15 -43 3 -14 17 -31 31 -39 14 -7 24 -18 22 -24 -3
-6 0 -19 5 -29 6 -12 5 -19 -7 -23 -19 -8 -20 -33 0 -40 8 -4 15 -18 15 -33 0
-14 7 -35 15 -45 8 -11 15 -35 15 -53 0 -27 4 -33 23 -35 12 -1 31 -2 42 -3
11 -1 32 -3 48 -4 16 0 26 -6 25 -13 -2 -8 7 -12 25 -11 25 2 27 -1 25 -32 -1
-19 -5 -32 -9 -29 -4 2 -10 0 -14 -6 -3 -5 4 -15 17 -20 13 -6 31 -24 40 -40
15 -27 15 -32 -2 -86 -9 -32 -24 -60 -31 -63 -33 -10 -40 -69 -10 -88 28 -17
36 -87 14 -124 -10 -16 -25 -32 -35 -35 -34 -10 -51 -50 -43 -100 6 -44 20
-64 63 -94 23 -15 31 -70 11 -70 -5 0 -9 -8 -8 -17 4 -22 -22 -72 -49 -96 -11
-10 -26 -32 -32 -48 -12 -28 -76 -100 -83 -93 -10 10 0 -214 11 -233 6 -12 12
-39 12 -60 0 -39 19 -93 33 -93 4 0 7 -10 7 -22 0 -13 7 -32 15 -42 8 -11 16
-36 16 -55 1 -20 3 -28 6 -18 8 30 37 19 55 -20 15 -36 15 -39 -3 -56 -22 -21
-25 -31 -6 -24 17 7 16 -91 -1 -102 -20 -12 6 -98 31 -105 21 -5 18 -31 -3
-31 -10 0 -13 -18 -11 -72 2 -64 0 -72 -14 -67 -13 5 -16 2 -13 -17 1 -13 10
-24 18 -24 20 0 22 -85 4 -140 -12 -36 -12 -43 6 -67 14 -19 18 -36 14 -57 -4
-21 0 -43 14 -70 12 -21 24 -57 28 -78 4 -21 9 -32 11 -25 7 20 23 14 23 -9 0
-11 9 -32 20 -46 30 -38 25 -57 -27 -99 -27 -21 -56 -49 -66 -61 -10 -12 -31
-29 -47 -37 -29 -14 -32 -13 -55 10 -24 24 -25 24 -57 8 -18 -10 -47 -17 -65
-15 -48 3 -165 -18 -189 -34 -12 -8 -35 -39 -53 -69 -23 -41 -38 -57 -58 -61
-59 -13 -99 -24 -130 -36 -33 -13 -80 -4 -147 29 -20 9 -43 12 -74 7 -47 -7
-89 -40 -138 -110 l-21 -30 -184 -9 c-265 -13 -350 -11 -410 9 -43 14 -72 17
-152 11 -116 -7 -143 -20 -209 -97 -45 -53 -46 -57 -55 -137 -4 -39 -11 -57
-29 -71 l-24 -19 0 -341 0 -341 3445 0 3445 0 0 38 0 37 -213 -3 -214 -2 3 32
c3 30 3 31 -5 8 -5 -14 -10 -18 -10 -10 -1 11 -6 9 -20 -7 -18 -22 -27 -23
-145 -23 -101 0 -126 3 -126 14 0 18 -78 88 -90 81 -5 -3 -6 -13 -3 -21 4 -10
-6 -26 -25 -43 l-30 -28 -264 -5 c-144 -3 -285 -4 -313 -1 l-50 5 0 184 c0
101 0 184 -1 184 -13 0 -67 -37 -74 -51 -6 -10 -19 -19 -28 -19 -10 0 -23 -5
-28 -10 -16 -16 -44 -1 -37 18 12 33 25 44 35 30 6 -9 8 -2 4 19 -4 26 -1 35
14 43 26 14 66 78 86 137 9 26 22 52 30 58 8 6 11 19 8 33 -8 26 -19 28 -33 4
-9 -16 -10 -16 -16 1 -5 12 -18 17 -44 17 -31 0 -40 -5 -55 -32 -17 -28 -20
-30 -31 -14 -10 13 -14 14 -18 4 -3 -10 -7 -10 -17 -2 -13 13 -5 54 11 54 5 0
9 5 9 10 0 6 -11 10 -25 10 -15 0 -25 6 -25 14 0 23 -33 24 -53 2 -12 -14 -20
-17 -25 -9 -10 15 -32 -3 -52 -41 -8 -16 -35 -50 -61 -75 -50 -51 -99 -115
-99 -129 0 -11 -156 -132 -170 -132 -5 0 -12 -11 -16 -25 -5 -19 -9 -23 -19
-15 -15 12 -25 -7 -25 -45 0 -13 -4 -26 -9 -29 -4 -3 -11 -24 -15 -46 -3 -23
-10 -39 -15 -36 -9 6 -51 -26 -51 -40 0 -5 -20 -24 -44 -42 -42 -31 -50 -33
-148 -38 -56 -3 -185 -1 -286 3 l-184 8 24 35 c14 20 31 57 38 83 8 26 18 47
23 47 5 0 7 18 3 39 -4 27 -2 41 7 44 9 3 9 12 -2 42 -12 35 -12 39 11 60 13
12 41 28 61 36 25 9 34 16 27 23 -21 21 -1 126 24 126 6 0 18 8 27 18 18 21
18 152 0 197 -7 16 -10 40 -6 52 6 26 2 28 -26 13 -22 -12 -25 0 -9 30 8 16 6
24 -11 39 -45 39 -111 112 -132 143 -13 22 -25 28 -52 28 -18 0 -37 -4 -40
-10 -3 -5 -24 -10 -46 -10 -32 0 -39 3 -39 20 0 13 -9 22 -25 26 -14 3 -25 11
-26 18 -2 34 -10 53 -30 69 -32 26 -33 52 -5 84 62 70 86 101 86 112 0 6 4 10
8 8 14 -4 63 56 69 86 7 35 38 57 80 57 21 0 33 5 33 14 0 7 7 19 15 26 9 7
14 19 11 26 -3 8 0 11 10 7 9 -3 14 1 14 12 0 17 18 17 64 -1 17 -7 22 11 6
21 -17 10 -11 35 8 35 33 0 55 35 48 75 -7 38 0 45 19 18 18 -24 36 -8 25 22
-9 25 -2 36 33 48 16 6 22 36 18 94 -1 11 3 24 8 28 6 3 11 1 11 -4 0 -27 19
-8 22 22 2 17 8 32 15 32 6 0 15 3 19 7 4 5 2 8 -4 8 -18 0 -14 30 4 37 8 3
22 23 31 44 8 22 19 39 24 39 14 0 10 54 -5 76 -14 18 -15 18 -21 1 -5 -12
-14 -16 -27 -11 -10 3 -30 -1 -43 -10 -13 -9 -41 -16 -62 -17 -21 0 -32 -3
-25 -6 6 -2 10 -9 7 -13 -3 -5 -12 -7 -19 -4 -16 6 -94 -45 -116 -75 -8 -12
-22 -21 -31 -21 -9 0 -22 -7 -29 -15 -7 -8 -17 -12 -22 -9 -5 3 -21 -5 -35
-17 -18 -17 -27 -20 -30 -11 -5 14 -33 17 -33 2 0 -5 -25 -17 -55 -25 -37 -11
-56 -22 -60 -36 -9 -28 -46 -40 -86 -29 -18 5 -35 8 -37 5 -2 -2 -9 2 -16 8
-36 40 -76 147 -81 221 -5 60 -31 106 -61 106 -7 0 -17 6 -21 13 -4 6 -18 20
-30 31 -21 17 -24 18 -47 2 -14 -9 -34 -16 -44 -16 -10 0 -23 -5 -30 -12 -6
-6 -45 -13 -86 -14 -66 -2 -76 0 -81 16 -8 26 -76 65 -85 49 -4 -6 -13 -8 -19
-5 -6 4 -9 12 -6 17 4 5 1 9 -6 9 -13 0 -59 46 -59 60 0 4 -6 10 -12 12 -13 5
48 68 64 68 5 0 8 7 8 15 0 7 8 18 18 24 14 8 15 13 4 30 -7 13 -8 21 -2 21 5
0 10 -5 10 -11 0 -5 4 -8 9 -5 5 3 7 16 4 27 -5 18 -3 20 15 15 11 -4 23 -2
27 4 12 19 38 10 69 -24 17 -19 56 -48 86 -65 30 -17 54 -35 53 -41 -2 -5 6
-10 17 -10 13 0 24 -10 30 -25 17 -45 37 -27 31 30 -1 10 1 26 5 35 4 8 8 40
11 70 2 30 8 69 14 87 8 24 6 40 -5 67 -14 34 -14 37 3 48 17 10 17 14 3 50
-13 34 -19 38 -39 33 -19 -4 -25 0 -34 22 -6 15 -15 31 -21 34 -6 4 -11 27
-12 50 -2 44 -2 44 -46 52 -25 4 -53 8 -63 8 -12 0 -17 5 -13 14 8 21 -35 44
-61 32 -26 -11 -83 10 -83 32 0 9 -8 11 -26 7 -15 -4 -32 -2 -41 5 -11 10 -16
10 -22 0 -8 -12 -60 -6 -71 9 -5 7 -113 51 -158 65 -12 3 -27 16 -33 27 -13
25 -2 35 51 44 104 18 180 56 180 89 0 6 -16 17 -36 24 -19 7 -38 20 -41 28
-4 9 -34 29 -67 44 -34 16 -68 33 -76 38 -26 16 -84 39 -126 50 -45 12 -114
11 -114 -1 0 -5 -20 -8 -45 -8 -35 0 -52 6 -73 25 -15 14 -38 28 -52 32 -52
12 -70 31 -70 73 0 22 -4 40 -10 40 -18 0 -11 56 10 80 14 16 20 37 20 73 0
43 2 48 15 37 12 -10 16 -9 21 4 3 9 3 27 0 41 -4 17 -2 25 7 25 22 0 87 92
87 125 0 6 14 19 30 28 20 12 30 26 30 41 0 13 7 29 15 36 9 7 13 21 10 31 -5
14 -1 19 11 19 14 0 15 2 3 17 -10 11 -10 14 -1 9 8 -5 12 0 12 14 0 12 -4 18
-10 15 -16 -10 -11 11 6 25 8 8 37 13 65 12 27 0 49 3 49 9 0 17 19 9 25 -10
3 -11 21 -29 40 -40 19 -11 35 -27 35 -34 0 -8 9 -22 20 -32 11 -10 20 -24 20
-31 0 -8 12 -20 28 -28 15 -8 40 -31 55 -50 15 -20 34 -36 40 -36 7 0 19 -6
25 -12 7 -7 29 -17 50 -23 22 -6 41 -20 49 -34 6 -14 19 -28 27 -33 9 -5 16
-13 16 -19 0 -15 104 -109 120 -109 5 0 16 -10 24 -21 9 -13 36 -27 68 -34 29
-8 47 -14 41 -14 -29 -2 -10 -21 20 -21 23 0 41 -8 57 -25 13 -14 29 -25 36
-25 7 0 20 -7 28 -16 11 -10 16 -11 16 -3 0 6 9 0 21 -15 23 -29 62 -34 93
-11 17 13 22 12 47 -2 37 -22 46 -12 51 60 4 51 2 60 -17 76 -17 13 -23 28
-23 61 -1 25 -6 46 -11 48 -14 5 -14 32 -1 32 8 0 8 6 1 18 -7 13 -5 22 11 39
18 19 19 25 7 57 -8 22 -25 41 -46 53 -20 11 -31 23 -28 31 3 8 5 22 5 33 0
14 20 28 74 54 l74 35 84 -21 c46 -11 94 -22 108 -25 23 -5 24 -4 8 9 -21 16
-25 61 -5 54 6 -2 11 -11 9 -21 -2 -9 2 -16 8 -16 5 0 9 3 8 8 -1 4 2 20 7 35
10 39 -11 111 -31 103 -9 -4 -14 1 -14 14 0 11 -4 20 -10 20 -5 0 -10 5 -10
11 0 7 -8 18 -17 25 -27 19 -22 125 6 155 11 12 18 26 15 30 -7 12 11 19 51
21 49 2 47 9 -21 68 -21 18 -83 58 -104 66 -8 3 -45 19 -81 35 -36 16 -72 29
-80 29 -8 0 -19 4 -24 8 -6 4 -37 18 -70 31 -33 12 -68 27 -77 32 -13 6 -18 6
-18 -3 0 -9 -3 -9 -12 0 -7 7 -19 12 -28 12 -9 0 -25 8 -36 18 -10 10 -28 19
-39 19 -11 1 -50 8 -86 15 -52 10 -71 19 -92 43 -23 26 -28 28 -46 18 -26 -16
-51 -16 -73 1 -28 20 -22 106 6 106 14 0 51 38 57 58 5 15 139 24 139 10 0
-19 29 -6 32 15 2 17 10 22 31 22 17 1 33 8 38 18 11 19 41 22 70 7 10 -6 38
-13 61 -16 33 -5 44 -3 55 12 7 10 13 12 13 6 0 -18 27 -14 42 6 7 9 26 23 43
31 l30 13 -33 14 c-19 7 -31 18 -27 23 3 5 -2 14 -11 19 -14 8 -14 11 -3 18
20 12 159 15 192 4 70 -25 86 -33 82 -40 -6 -10 35 -21 48 -13 5 3 6 16 3 28
-3 13 -2 27 4 30 5 3 10 2 10 -3 0 -5 12 -9 26 -9 29 0 52 -22 77 -72 22 -45
22 -72 0 -64 -13 5 -15 2 -10 -11 4 -10 3 -25 -2 -35 -7 -13 2 -36 37 -94 37
-61 56 -82 89 -98 23 -11 45 -29 48 -39 3 -10 18 -20 33 -23 15 -3 51 -29 81
-56 29 -28 57 -51 61 -51 14 0 108 -193 115 -235 4 -22 13 -58 21 -79 10 -25
15 -73 15 -129 0 -49 4 -97 9 -107 6 -12 7 -28 1 -43 -11 -28 9 -141 30 -175
7 -12 32 -28 55 -37 23 -9 53 -26 66 -39 62 -60 122 -70 147 -24 6 13 24 31
39 40 56 36 66 43 82 60 20 22 70 13 70 -12 0 -34 27 -28 82 21 102 90 169 93
274 13 17 -13 34 -24 37 -24 4 0 7 17 8 38 0 20 7 75 15 122 8 47 16 99 18
115 3 29 9 50 27 90 5 11 8 52 8 90 0 67 8 139 33 287 9 53 8 76 -1 106 -10
29 -10 48 -2 78 26 95 6 226 -50 332 -16 29 -29 58 -29 65 0 7 -20 46 -45 86
-25 40 -48 90 -51 111 -8 48 -39 100 -60 100 -13 0 -42 20 -117 80 -4 4 -10
17 -12 30 -3 13 -22 42 -43 64 -21 23 -58 66 -81 96 -81 106 -125 143 -223
193 -68 34 -105 60 -129 90 -43 54 -127 135 -153 149 -15 8 -12 1 12 -26 17
-20 32 -41 32 -46 0 -5 -14 -4 -32 2 -18 5 -58 12 -88 14 -30 2 -92 9 -138 15
-45 6 -90 8 -99 5 -20 -8 -103 25 -103 40 0 13 35 28 103 45 45 11 126 8 202
-7 22 -5 27 -4 19 5 -33 36 -236 35 -348 0 -70 -23 -94 -24 -115 -5 -35 31
-154 87 -227 107 -65 18 -96 21 -189 16 -107 -4 -148 -14 -218 -53 -36 -20
-57 -12 -57 22 0 37 -28 92 -51 99 -25 8 -96 -25 -143 -66 -34 -29 -47 -34
-105 -37 -60 -4 -64 -3 -52 12 12 14 10 16 -12 16 -14 0 -29 -4 -32 -10 -16
-26 -36 -11 -128 89 -60 65 -101 81 -204 80 -54 0 -101 -6 -122 -16z m171
-117 c50 -21 65 -42 40 -55 -11 -6 -22 -8 -25 -4 -13 13 -101 -31 -153 -77
-60 -52 -97 -65 -144 -49 -37 13 -38 29 -5 86 27 45 55 57 55 22 0 -30 15 -15
30 30 13 39 39 59 60 46 5 -3 18 -1 27 4 26 15 75 13 115 -3z m624 -28 c5 -7
9 -24 9 -38 0 -30 -30 -38 -60 -17 -18 14 -18 16 -2 41 19 28 39 33 53 14z
m244 -32 c0 -5 -87 -46 -97 -46 -13 1 71 50 85 50 6 0 12 -2 12 -4z m-1494
-1233 c-2 -3 -9 -2 -15 2 -8 4 -7 13 1 28 l13 22 3 -23 c2 -13 1 -26 -2 -29z
m3514 -170 c0 -32 -5 -28 -14 10 -4 19 -3 26 4 22 5 -3 10 -18 10 -32z m-2473
1 c-3 -3 -12 -4 -19 -1 -8 3 -5 6 6 6 11 1 17 -2 13 -5z m643 -707 c14 -7 55
-35 93 -64 37 -28 76 -55 86 -58 19 -6 36 -33 27 -43 -10 -10 -276 162 -276
179 0 11 29 5 70 -14z m-1770 -61 c0 -2 -7 -6 -15 -10 -8 -3 -15 -1 -15 4 0 6
7 10 15 10 8 0 15 -2 15 -4z m555 -226 c3 -5 1 -10 -4 -10 -6 0 -11 5 -11 10
0 6 2 10 4 10 3 0 8 -4 11 -10z m1182 -391 c1 -19 1 -20 -4 -4 -3 11 -10 24
-17 28 -7 6 -6 7 4 4 8 -2 16 -14 17 -28z m-37 -5 c0 -8 -4 -14 -10 -14 -5 0
-10 9 -10 21 0 11 5 17 10 14 6 -3 10 -13 10 -21z m-755 -834 c3 -6 -1 -7 -9
-4 -18 7 -21 14 -7 14 6 0 13 -4 16 -10z m125 -291 c11 -6 6 -8 -17 -9 -17 0
-33 -6 -36 -12 -3 -10 -9 -10 -26 0 -11 6 -33 12 -48 13 -16 0 -22 3 -14 6 11
5 11 7 0 14 -18 11 121 -1 141 -12z m190 -359 c0 -5 -5 -10 -11 -10 -5 0 -7 5
-4 10 3 6 8 10 11 10 2 0 4 -4 4 -10z m200 -262 c0 -4 -13 -8 -30 -8 -16 0
-30 4 -30 8 0 5 14 9 30 9 17 0 30 -4 30 -9z m767 -1290 c-3 -8 -6 -5 -6 6 -1
11 2 17 5 13 3 -3 4 -12 1 -19z m923 -152 c0 -15 -18 -31 -26 -23 -7 7 7 37
17 37 5 0 9 -6 9 -14z m-40 -60 c0 -2 -9 -6 -20 -9 -11 -3 -18 -1 -14 4 5 9
34 13 34 5z m230 -261 c0 -16 -27 -32 -37 -21 -7 7 16 36 28 36 5 0 9 -7 9
-15z m-70 -79 c0 -8 -7 -16 -15 -20 -10 -4 -15 1 -15 14 0 11 7 20 15 20 8 0
15 -6 15 -14z m-25 -46 c-3 -5 -11 -10 -16 -10 -6 0 -7 5 -4 10 3 6 11 10 16
10 6 0 7 -4 4 -10z m-33 -64 c-4 -7 -8 -5 -10 7 -2 9 -8 17 -13 17 -5 0 -9 5
-9 12 0 6 8 3 20 -7 11 -10 16 -23 12 -29z m-47 -16 c2 -20 -2 -30 -11 -30
-14 0 -20 51 -7 63 10 11 16 0 18 -33z"/>
<path d="M2964 6649 c-3 -5 6 -9 20 -9 31 0 34 6 6 13 -11 3 -23 1 -26 -4z"/>
<path d="M3600 5470 c0 -5 14 -10 30 -10 17 0 30 5 30 10 0 6 -13 10 -30 10
-16 0 -30 -4 -30 -10z"/>
<path d="M1831 5344 c0 -11 3 -14 6 -6 3 7 2 16 -1 19 -3 4 -6 -2 -5 -13z"/>
<path d="M1840 5313 c0 -15 31 -46 38 -38 3 3 -4 15 -16 28 -12 12 -22 16 -22
10z"/>
<path d="M3121 5164 c0 -11 3 -14 6 -6 3 7 2 16 -1 19 -3 4 -6 -2 -5 -13z"/>
<path d="M3841 4604 c0 -11 3 -14 6 -6 3 7 2 16 -1 19 -3 4 -6 -2 -5 -13z"/>
<path d="M5174 4176 c-51 -23 -132 -138 -148 -212 -7 -29 -4 -33 35 -54 39
-20 44 -20 55 -5 18 24 28 105 15 118 -23 23 -10 29 13 7 25 -22 56 -22 56 1
0 45 118 -132 136 -204 7 -29 20 -79 28 -112 9 -33 16 -85 16 -115 1 -44 3
-51 11 -37 36 62 50 277 25 373 -9 34 -16 72 -16 85 0 34 -63 109 -118 141
-53 31 -64 33 -108 14z"/>
<path d="M4896 3912 c-6 -10 14 -105 21 -98 3 3 7 28 9 56 2 37 -1 50 -11 50
-8 0 -16 -4 -19 -8z"/>
<path d="M3627 3903 c-13 -12 -7 -23 13 -23 11 0 20 7 20 15 0 15 -21 21 -33
8z"/>
<path d="M4976 3811 c-3 -4 -6 -58 -7 -118 -1 -105 0 -112 26 -152 19 -28 35
-41 50 -41 27 0 62 -45 42 -53 -9 -4 -8 -8 2 -15 12 -8 12 -14 3 -25 -7 -7 -9
-17 -5 -20 10 -11 52 -8 66 3 7 6 30 23 52 39 43 30 105 133 105 174 0 26 -33
67 -55 67 -7 0 -16 8 -19 18 -3 9 -16 22 -28 28 -13 6 -45 22 -73 36 -51 27
-142 68 -150 68 -2 0 -6 -4 -9 -9z"/>
<path d="M4900 3740 c0 -11 4 -20 9 -20 5 0 7 9 4 20 -3 11 -7 20 -9 20 -2 0
-4 -9 -4 -20z"/>
<path d="M3607 3513 c-12 -11 -8 -23 8 -23 8 0 15 7 15 15 0 16 -12 20 -23 8z"/>
<path d="M3650 3500 c0 -5 5 -10 11 -10 5 0 7 5 4 10 -3 6 -8 10 -11 10 -2 0
-4 -4 -4 -10z"/>
<path d="M4920 3480 c0 -9 7 -17 15 -17 8 0 15 8 15 17 0 9 -7 17 -15 17 -8 0
-15 -8 -15 -17z"/>
<path d="M3791 3449 c-35 -34 -36 -39 -19 -86 11 -30 38 -47 38 -23 0 5 7 7
15 4 8 -4 15 -1 15 5 0 6 -6 11 -14 11 -8 0 -17 7 -20 16 -8 22 -2 28 12 12
13 -16 102 -11 102 5 0 10 -80 87 -92 87 -3 0 -20 -14 -37 -31z"/>
<path d="M5254 3381 c3 -5 -2 -12 -12 -15 -54 -20 -73 -47 -33 -46 35 1 85 70
50 70 -5 0 -8 -4 -5 -9z"/>
<path d="M4741 3304 c-12 -30 -21 -75 -21 -100 0 -24 -4 -52 -9 -62 -19 -37
-32 -68 -36 -87 -11 -48 -87 -343 -96 -375 -21 -73 -29 -106 -29 -128 0 -20 3
-21 20 -12 11 6 20 18 20 28 0 9 13 23 29 30 20 9 39 32 61 77 18 36 36 65 41
65 5 0 9 10 9 21 0 19 2 20 17 8 15 -12 16 -12 10 4 -3 9 -3 17 2 17 5 0 14
13 21 29 6 16 22 39 36 52 13 12 24 30 24 40 0 10 5 21 11 25 12 7 6 -22 -11
-61 -27 -59 -69 -184 -72 -210 -3 -28 -1 -30 27 -27 17 2 39 12 51 23 11 10
29 19 40 19 25 0 52 29 89 93 28 49 32 51 79 32 17 -8 18 -4 14 48 -4 51 -3
56 16 59 17 2 20 9 18 33 -5 55 -4 70 6 107 11 44 7 51 -22 36 -11 -7 -29 -11
-40 -9 -10 1 -22 -2 -26 -9 -9 -14 -86 -2 -106 17 -22 22 -18 106 5 127 10 10
21 27 24 38 5 19 2 20 -35 15 -47 -6 -103 23 -112 59 -12 45 -34 35 -55 -22z"/>
<path d="M3890 3315 c0 -8 7 -15 15 -15 8 0 15 7 15 15 0 8 -7 15 -15 15 -8 0
-15 -7 -15 -15z"/>
<path d="M3810 3296 c0 -8 7 -16 15 -20 13 -4 14 -2 5 14 -13 23 -20 26 -20 6z"/>
<path d="M3840 3294 c0 -4 9 -22 21 -40 23 -38 49 -45 49 -14 0 13 7 20 20 20
11 0 20 5 20 11 0 8 -12 10 -35 6 -26 -4 -35 -2 -35 9 0 8 -9 14 -20 14 -11 0
-20 -3 -20 -6z"/>
<path d="M3960 3240 c0 -5 5 -10 10 -10 6 0 10 5 10 10 0 6 -4 10 -10 10 -5 0
-10 -4 -10 -10z"/>
<path d="M3917 3195 c3 -8 9 -12 14 -9 12 7 11 11 -5 17 -10 4 -13 1 -9 -8z"/>
<path d="M3384 2472 c-13 -8 -7 -72 7 -72 5 0 9 1 9 3 13 80 11 87 -16 69z"/>
<path d="M3536 2385 c-9 -24 -8 -45 3 -45 14 0 22 30 13 47 -8 13 -10 13 -16
-2z"/>
<path d="M4077 2254 c3 -7 9 -14 14 -14 14 0 10 17 -5 23 -10 4 -13 1 -9 -9z"/>
<path d="M4186 1781 c-4 -5 -2 -12 3 -15 5 -4 12 -2 15 3 4 5 2 12 -3 15 -5 4
-12 2 -15 -3z"/>
<path d="M5430 820 c0 -11 -4 -20 -8 -20 -13 0 -33 -73 -23 -83 13 -13 28 -1
36 30 3 16 14 36 22 45 8 10 13 24 10 33 -9 22 -37 19 -37 -5z"/>
<path d="M4146 821 c-4 -7 -5 -15 -2 -18 9 -9 19 4 14 18 -4 11 -6 11 -12 0z"/>
<path d="M5217 764 c-7 -7 14 -44 26 -44 12 0 4 43 -9 47 -5 2 -13 1 -17 -3z"/>
<path d="M5200 712 c0 -5 7 -13 16 -16 10 -4 14 -1 12 6 -5 15 -28 23 -28 10z"/>
<path d="M5910 608 c0 -6 3 -8 7 -5 3 4 12 2 20 -5 11 -8 12 -7 7 6 -7 18 -34
22 -34 4z"/>
<path d="M6324 592 c-22 -15 -34 -78 -34 -176 1 -81 4 -105 18 -121 25 -29 89
-43 132 -29 19 6 52 17 73 24 21 6 58 31 82 55 24 23 51 45 60 49 18 7 20 38
3 35 -15 -3 -42 7 -80 27 -15 8 -44 16 -63 18 -20 2 -39 7 -43 10 -4 4 -1 6 7
4 7 -1 16 3 18 10 3 7 -5 12 -21 12 -14 0 -26 5 -26 10 0 6 -9 10 -19 10 -10
0 -21 7 -25 15 -3 8 -12 15 -20 15 -7 0 -16 9 -19 20 -5 20 -23 26 -43 12z"/>
<path d="M4080 580 c0 -5 11 -10 25 -10 14 0 25 5 25 10 0 6 -11 10 -25 10
-14 0 -25 -4 -25 -10z"/>
<path d="M5421 494 c0 -11 3 -14 6 -6 3 7 2 16 -1 19 -3 4 -6 -2 -5 -13z"/>
<path d="M4402 489 c2 -7 10 -15 17 -17 8 -3 12 1 9 9 -2 7 -10 15 -17 17 -8
3 -12 -1 -9 -9z"/>
<path d="M5836 385 c-4 -16 -3 -32 3 -38 15 -15 24 14 13 43 l-9 24 -7 -29z"/>
<path d="M5797 323 c-11 -10 -8 -28 8 -49 14 -18 14 -17 12 18 -2 37 -7 45
-20 31z"/>
<path d="M5860 230 c0 -5 5 -10 10 -10 6 0 10 5 10 10 0 6 -4 10 -10 10 -5 0
-10 -4 -10 -10z"/>
<path d="M5850 150 c0 -5 5 -10 10 -10 6 0 10 5 10 10 0 6 -4 10 -10 10 -5 0
-10 -4 -10 -10z"/>
<path d="M5889 120 c-7 -35 -4 -48 7 -38 3 4 4 21 2 40 l-3 33 -6 -35z"/>
</g>
</svg>
